<?xml version="1.0" encoding="UTF-8" standalone="no"?>
<!-- Uploaded to: SVG Repo, www.svgrepo.com, Transformed by: SVG Repo Mixer Tools -->

<svg
   width="64px"
   height="64px"
   viewBox="0 0 16 16"
   fill="none"
   version="1.1"
   id="svg3"
   sodipodi:docname="volume3.svg"
   inkscape:version="1.4.4 (dcaf3e7d9e, 2026-05-05)"
   xmlns:inkscape="http://www.inkscape.org/namespaces/inkscape"
   xmlns:sodipodi="http://sodipodi.sourceforge.net/DTD/sodipodi-0.dtd"
   xmlns="http://www.w3.org/2000/svg"
   xmlns:svg="http://www.w3.org/2000/svg">
  <defs
     id="defs3" />
  <sodipodi:namedview
     id="namedview3"
     pagecolor="#ffffff"
     bordercolor="#000000"
     borderopacity="0.25"
     inkscape:showpageshadow="2"
     inkscape:pageopacity="0.0"
     inkscape:pagecheckerboard="0"
     inkscape:deskcolor="#d1d1d1"
     showgrid="false"
     inkscape:zoom="9.0377085"
     inkscape:cx="26.002166"
     inkscape:cy="29.542887"
     inkscape:window-width="1906"
     inkscape:window-height="1026"
     inkscape:window-x="5"
     inkscape:window-y="45"
     inkscape:window-maximized="1"
     inkscape:current-layer="svg3" />
  <g
     id="SVGRepo_bgCarrier"
     stroke-width="0" />
  <g
     id="SVGRepo_tracerCarrier"
     stroke-linecap="round"
     stroke-linejoin="round" />
  <g
     id="SVGRepo_iconCarrier"
     transform="matrix(-1,0,0,1,16,0)">
    <g
       fill="#000000"
       id="g3">
      <path
         d="M 13.242,2.184 A 0.75,0.75 0 1 0 12.258,3.316 C 13.709,4.578 14.5,6.266 14.5,8 c 0,1.734 -0.79,3.422 -2.242,4.684 a 0.75,0.75 0 1 0 0.984,1.132 C 14.992,12.293 16,10.204 16,8 16,5.796 14.992,3.707 13.242,2.184 Z"
         id="path1" />
      <path
         fill-rule="evenodd"
         d="M 7.033,2.686 A 1.25,1.25 0 0 1 9,3.71 v 8.58 A 1.25,1.25 0 0 1 7.033,13.314 L 3.728,11 H 1.25 C 0.56,11 0,10.44 0,9.75 V 6.25 C 0,5.56 0.56,5 1.25,5 H 3.728 Z M 7.5,4.19 4.524,6.274 A 1.25,1.25 0 0 1 3.807,6.5 H 1.5 v 3 h 2.307 c 0.256,0 0.506,0.079 0.717,0.226 L 7.5,11.809 Z"
         clip-rule="evenodd"
         id="path2" />
      <path
         d="M 10.701,5.239 A 0.75,0.75 0 0 1 11.761,5.201 3.826,3.826 0 0 1 13,8 c 0,1.06 -0.453,2.066 -1.239,2.799 A 0.75004033,0.75004033 0 1 1 10.74,9.7 c 0.494,-0.46 0.761,-1.074 0.761,-1.701 0,-0.627 -0.267,-1.24 -0.761,-1.701 a 0.75,0.75 0 0 1 -0.038,-1.06 z"
         id="path3" />
    </g>
  </g>
</svg>
